<svg width="35" height="29" viewBox="0 0 35 29" fill="none" xmlns="http://www.w3.org/2000/svg">
<path d="M3.12207 0H11.1326C11.9542 0 12.721 0.0690476 13.4331 0.207143C14.1588 0.345238 14.7408 0.635238 15.179 1.07714C15.6309 1.50524 15.8568 2.1681 15.8568 3.06571C15.8568 3.96333 15.6309 4.6331 15.179 5.075C14.7408 5.5031 14.1588 5.78619 13.4331 5.92429C12.721 6.06238 11.9542 6.13143 11.1326 6.13143H6.24413V11.5171H8.83216C9.65376 11.5171 10.4206 11.5793 11.1326 11.7036C11.8584 11.814 12.4403 12.0902 12.8785 12.5321C13.3304 12.9602 13.5563 13.6438 13.5563 14.5829C13.5563 15.5219 13.3372 16.2124 12.8991 16.6543C12.4609 17.0824 11.8789 17.3586 11.1532 17.4829C10.4411 17.5933 9.66745 17.6486 8.83216 17.6486H6.24413V24.2357C6.24413 25.1333 6.18936 25.9412 6.07981 26.6593C5.97027 27.3774 5.6964 27.9505 5.25822 28.3786C4.82003 28.7929 4.10798 29 3.12207 29C2.13615 29 1.4241 28.7929 0.985915 28.3786C0.547731 27.9643 0.273865 27.3981 0.164319 26.68C0.0547731 25.9619 0 25.1471 0 24.2357V4.76429C0 3.86667 0.0547731 3.05881 0.164319 2.34071C0.273865 1.62262 0.547731 1.05643 0.985915 0.642143C1.4241 0.214048 2.13615 0 3.12207 0Z" fill="white"/>
<path d="M20.0469 25.9343V4.76429C20.0469 3.9081 20.1154 3.12095 20.2523 2.40286C20.3893 1.67095 20.6768 1.09095 21.115 0.662857C21.5669 0.220952 22.2516 0 23.169 0C24.1549 0 24.8738 0.214048 25.3257 0.642143C25.7913 1.05643 26.0857 1.62262 26.2089 2.34071C26.3459 3.05881 26.4143 3.86667 26.4143 4.76429V22.91H30.4401C31.2617 22.91 32.0149 22.979 32.6995 23.1171C33.3979 23.2552 33.9525 23.5383 34.3633 23.9664C34.7878 24.3945 35 25.0505 35 25.9343C35 26.8319 34.7878 27.5017 34.3633 27.9436C33.9525 28.3717 33.4047 28.6548 32.7201 28.7929C32.0354 28.931 31.2754 29 30.4401 29H24.6068C23.1416 29 22.0119 28.8343 21.2177 28.5029C20.4372 28.1714 20.0469 27.3152 20.0469 25.9343Z" fill="white"/>
</svg>
