<svg width="60" height="60" viewBox="0 0 60 60" fill="none" xmlns="http://www.w3.org/2000/svg">
<path fill-rule="evenodd" clip-rule="evenodd" d="M29.9901 0C22.868 0.00374782 15.9794 2.56214 10.5561 7.21772C5.13285 11.8733 1.5285 18.3225 0.387579 25.412C-0.753345 32.5016 0.64354 39.7693 4.32849 45.9156C8.01343 52.0618 13.7461 56.6859 20.5015 58.9608C21.9919 59.2414 22.5532 58.3046 22.5532 57.508C22.5532 56.7114 22.5234 54.4019 22.5135 51.8769C14.1675 53.7055 12.404 48.3049 12.404 48.3049C11.0428 44.798 9.07551 43.8762 9.07551 43.8762C6.35315 42.0025 9.27921 42.0376 9.27921 42.0376C12.2947 42.253 13.8794 45.1587 13.8794 45.1587C16.5521 49.7828 20.8989 48.4452 22.6079 47.6637C22.8761 45.7048 23.6561 44.3722 24.5155 43.6157C17.8487 42.8542 10.8441 40.2591 10.8441 28.6663C10.8027 25.6598 11.909 22.7523 13.9341 20.5454C13.6261 19.7839 12.5977 16.7078 14.2271 12.5296C14.2271 12.5296 16.7459 11.718 22.4787 15.6307C27.396 14.2746 32.5841 14.2746 37.5014 15.6307C43.2293 11.718 45.743 12.5296 45.743 12.5296C47.3775 16.6978 46.3491 19.7739 46.0411 20.5454C48.0725 22.7527 49.1812 25.6652 49.1361 28.6763C49.1361 40.2942 42.1165 42.8542 35.4398 43.6007C36.5128 44.5425 37.4716 46.3811 37.4716 49.2067C37.4716 53.2546 37.4368 56.511 37.4368 57.508C37.4368 58.3146 37.9783 59.2564 39.4985 58.9608C46.2547 56.6856 51.9879 52.0607 55.6728 45.9134C59.3577 39.7661 60.7538 32.4973 59.6116 25.4071C58.4694 18.3169 54.8633 11.8676 49.4382 7.21286C44.0131 2.55808 37.1229 0.00137227 30 0H29.9901Z" fill="black"/>
</svg>
