<svg width="27" height="27" viewBox="0 0 27 27" fill="none" xmlns="http://www.w3.org/2000/svg">
<path fill-rule="evenodd" clip-rule="evenodd" d="M25.6902 13.2143C25.6902 14.1203 25.5898 15.0031 25.4013 15.8535C25.8821 16.808 26.1538 17.883 26.1538 19.0213C26.1538 22.9605 22.9153 26.154 18.9199 26.154C17.6829 26.154 16.5185 25.8472 15.5001 25.3075C14.7596 25.4427 13.9964 25.5139 13.216 25.5139C6.32675 25.5139 0.741982 20.007 0.741982 13.2142C0.741982 12.3668 0.828896 11.5397 0.994324 10.7407C0.363297 9.68185 0 8.44948 0 7.13271C0 3.19384 3.23875 0 7.23407 0C8.6489 0 9.96788 0.401987 11.0827 1.09454C11.7761 0.976589 12.4887 0.914604 13.216 0.914604C20.1053 0.914604 25.6902 6.4215 25.6902 13.2143ZM17.0792 20.9881C18.1839 20.5353 19.0365 19.8972 19.6136 19.092C20.1926 18.2838 20.4863 17.3604 20.4865 16.3469C20.4865 15.5002 20.3159 14.7713 19.9793 14.181C19.6436 13.5928 19.1705 13.1001 18.573 12.7164C17.9876 12.341 17.2697 12.0176 16.4391 11.7555C16.3019 11.7122 16.1604 11.6696 16.0173 11.6275C15.3047 11.4178 14.522 11.2218 13.6815 11.0438C12.8838 10.8622 12.3021 10.7216 11.9554 10.6268C11.617 10.5346 11.2792 10.4055 10.9513 10.243C10.6352 10.0871 10.3852 9.8996 10.2079 9.6861C10.0405 9.48454 9.9592 9.25037 9.9592 8.97009C9.9592 8.51318 10.212 8.12749 10.7323 7.79115C11.2723 7.44209 11.9995 7.26511 12.8936 7.26511C13.8564 7.26511 14.5572 7.42474 14.9762 7.73911C15.4082 8.06281 15.7845 8.52216 16.0956 9.10487C16.3645 9.56134 16.6065 9.87859 16.84 10.0821C17.091 10.3012 17.4525 10.4124 17.9145 10.4124C18.423 10.4124 18.8541 10.2346 19.1956 9.88452C19.5351 9.53641 19.7073 9.13704 19.7073 8.69757C19.7073 8.24092 19.5761 7.76884 19.3172 7.29449C19.0609 6.82485 18.6528 6.37265 18.1042 5.95C17.5596 5.53049 16.8664 5.18953 16.0442 4.93706C15.2267 4.68642 14.2473 4.55957 13.1332 4.55957C11.7399 4.55957 10.5084 4.75084 9.47318 5.12833C8.42439 5.51088 7.60973 6.06839 7.05192 6.7858C6.48986 7.50826 6.2049 8.34579 6.2049 9.27496C6.2049 10.2497 6.47633 11.079 7.01204 11.74C7.53944 12.3909 8.26038 12.9111 9.15488 13.2862L9.16505 13.2904C10.0381 13.6556 11.1344 13.9787 12.424 14.251C13.376 14.4475 14.1457 14.6355 14.7126 14.8097C15.2564 14.9769 15.7042 15.2205 16.0437 15.5336C16.3678 15.8331 16.5255 16.2147 16.5255 16.7002C16.5255 17.3148 16.2234 17.8168 15.6023 18.235C14.9663 18.6632 14.1208 18.8803 13.0896 18.8803C12.3398 18.8803 11.7302 18.7733 11.2779 18.5621C10.8284 18.3527 10.4764 18.0842 10.2318 17.7649C9.97723 17.4329 9.73621 17.0114 9.51517 16.5122C9.31721 16.0537 9.07079 15.6987 8.78371 15.4588C8.48309 15.2084 8.11343 15.0815 7.68479 15.0815C7.16261 15.0815 6.72469 15.2421 6.38297 15.5591C6.03761 15.8788 5.86255 16.2696 5.86255 16.7203C5.86255 17.4414 6.13133 18.1892 6.66121 18.9429C7.18578 19.6889 7.87692 20.2934 8.71501 20.7399C9.8874 21.3531 11.3895 21.6638 13.1811 21.6638C14.6739 21.6638 15.9852 21.4365 17.0792 20.9881Z" fill="white"/>
</svg>
