<svg width="30" height="28" viewBox="0 0 30 28" xmlns="http://www.w3.org/2000/svg">
<path id="o" fill-rule="evenodd" clip-rule="evenodd" d="M7.2946 15.6152L0.519562 12.9483C-0.168537 12.6763 -0.17451 11.6517 0.511637 11.3726L28.3166 0.0598927C28.9061 -0.180562 29.5143 0.364125 29.3859 1.01699L24.3961 26.3311C24.2785 26.9288 23.6141 27.1999 23.1451 26.8403L16.3336 21.6246C15.9199 21.3079 15.356 21.3248 14.9602 21.665L11.1837 24.9121C10.7453 25.2901 10.0848 25.0795 9.91698 24.5099L7.2946 15.6152ZM22.7354 5.59367L9.49444 14.1947C8.98695 14.5251 8.74799 15.1714 8.91195 15.7766L10.3436 21.082C10.4452 21.458 10.9626 21.4194 11.0119 21.031L11.3842 18.1215C11.4543 17.5737 11.7021 17.0691 12.0862 16.692L23.0139 5.97882C23.2182 5.77888 22.9734 5.43952 22.7354 5.59367Z" fill="white"/>
<path id="p" d="M9.49432 14.1947L22.7353 5.59367C22.9732 5.43952 23.2181 5.77888 23.0137 5.97882L12.0861 16.692C11.702 17.0691 11.4542 17.5737 11.384 18.1215L11.0118 21.031C10.9625 21.4194 10.4451 21.458 10.3434 21.082L8.91183 15.7766C8.74787 15.1714 8.98683 14.5251 9.49432 14.1947Z" fill="#EAEAEA"/>
</svg>
