<svg width="38" height="38" viewBox="0 0 38 38" fill="none" xmlns="http://www.w3.org/2000/svg">
<path fill-rule="evenodd" clip-rule="evenodd" d="M27.1269 22.3958C26.664 22.1641 24.3882 21.0446 23.9639 20.8902C23.5396 20.7358 23.2311 20.6586 22.9225 21.1219C22.6139 21.5851 21.7268 22.6274 21.4568 22.9362C21.1868 23.245 20.9168 23.2837 20.4539 23.052C19.991 22.8205 18.4996 22.3318 16.7315 20.7552C15.3555 19.5283 14.4265 18.0128 14.1564 17.5496C13.8864 17.0863 14.1277 16.8359 14.3595 16.6052C14.5676 16.398 14.8223 16.0648 15.0537 15.7946C15.2852 15.5243 15.3623 15.3313 15.5166 15.0225C15.6709 14.7137 15.5938 14.4434 15.478 14.2118C15.3623 13.9802 14.4366 11.7025 14.0509 10.776C13.6752 9.87375 13.2935 9.99583 13.0094 9.98169C12.7397 9.96825 12.4308 9.9654 12.1222 9.9654C11.8137 9.9654 11.3122 10.0813 10.8879 10.5444C10.4636 11.0077 9.26782 12.1273 9.26782 14.4048C9.26782 16.6824 10.9265 18.8828 11.1579 19.1917C11.3894 19.5006 14.422 24.1745 19.0653 26.1789C20.1697 26.6557 21.0319 26.9403 21.7041 27.1537C22.8131 27.5058 23.8221 27.4562 24.6197 27.337C25.509 27.2042 27.3584 26.2175 27.7441 25.1366C28.1298 24.0557 28.1298 23.1292 28.0141 22.9362C27.8984 22.7432 27.5898 22.6274 27.1269 22.3958ZM18.6811 33.9238H18.6749C15.9119 33.9228 13.202 33.1808 10.8379 31.7783L10.2757 31.4446L4.448 32.9729L6.00353 27.2928L5.63736 26.7105C4.09607 24.2597 3.28205 21.4271 3.2832 18.5187C3.28659 10.0317 10.194 3.12701 18.6872 3.12701C22.7999 3.12861 26.6659 4.73183 29.573 7.64126C32.4801 10.5508 34.0802 14.4182 34.0786 18.5311C34.0751 27.0187 27.1678 33.9238 18.6811 33.9238ZM31.7856 5.43172C28.288 1.93118 23.6367 0.00244522 18.681 0.000488281C8.47006 0.000488281 0.159581 8.30777 0.155488 18.5188C0.154153 21.7828 1.00715 24.9689 2.62826 27.7773L0.00012207 37.374L9.82075 34.7988C12.5266 36.2742 15.573 37.0516 18.6736 37.053H18.6811H18.6812C28.8912 37.053 37.2024 28.7446 37.2065 18.5335C37.2084 13.5851 35.2833 8.93217 31.7856 5.43172Z" fill="white"/>
</svg>
