<svg width="97" height="165" viewBox="0 0 97 165" fill="none" xmlns="http://www.w3.org/2000/svg">
<g filter="url(#filter0_d_101_145)">
<path d="M8 94.6698L19.3009 41.5117C19.3602 41.3102 19.5085 41.2095 19.7458 41.2095H32.9599C33.1972 41.2095 33.3455 41.3102 33.4048 41.5117L44.2608 94.6698C44.2905 94.9217 44.1718 95.0476 43.9049 95.0476H33.8052C33.5086 95.0476 33.3455 94.9217 33.3158 94.6698L32.337 89.0026H19.9238L18.945 94.6698C18.9153 94.9217 18.767 95.0476 18.5001 95.0476H8.35593C8.11864 95.0476 8 94.9217 8 94.6698ZM26.7755 59.0044L26.2416 56.133L25.8412 59.0044L21.748 80.7286H30.5128L26.7755 59.0044Z" fill="white"/>
<path d="M45.6578 103.163L34.3569 156.321C34.2976 156.522 34.1493 156.623 33.912 156.623H20.6979C20.4606 156.623 20.3123 156.522 20.253 156.321L9.39697 103.163C9.36731 102.911 9.48595 102.785 9.7529 102.785H19.8525C20.1492 102.785 20.3123 102.911 20.342 103.163L21.3208 108.83H33.734L34.7128 103.163C34.7425 102.911 34.8908 102.785 35.1577 102.785H45.3019C45.5392 102.785 45.6578 102.911 45.6578 103.163ZM26.8823 138.828L27.4162 141.7L27.8166 138.828L31.9098 117.104H23.1449L26.8823 138.828Z" fill="url(#paint0_linear_101_145)"/>
<path d="M62.7517 120.195H52.5186C52.222 120.195 52.0737 120.069 52.0737 119.817L52.2516 66.6589C52.2516 66.4574 52.3703 66.3567 52.6076 66.3567H70.1373C75.7137 66.3567 80.1183 67.805 83.3514 70.7015C86.6141 73.5729 88.2455 77.4895 88.2455 82.4515C88.2455 86.0784 87.4002 89.2395 85.7095 91.9345C83.9891 94.6044 81.7645 96.6698 79.0357 98.1306C76.3069 99.5915 73.3408 100.322 70.1373 100.322H63.1966V119.817C63.1966 120.069 63.0483 120.195 62.7517 120.195ZM70.1373 75.5375L63.1966 75.6131V90.9522H70.1373C72.0653 90.9522 73.7412 90.1714 75.1649 88.6098C76.5887 87.023 77.3005 84.9702 77.3005 82.4515C77.3005 80.4365 76.6628 78.7867 75.3874 77.5021C74.1119 76.1924 72.3619 75.5375 70.1373 75.5375Z" fill="white"/>
<path d="M62.7517 8H52.5186C52.222 8 52.0737 8.12594 52.0737 8.37781L52.2516 61.5359C52.2516 61.7374 52.3703 61.8381 52.6076 61.8381H70.1373C75.7137 61.8381 80.1183 60.3899 83.3514 57.4933C86.6141 54.6219 88.2455 50.7053 88.2455 45.7434C88.2455 42.1164 87.4002 38.9554 85.7095 36.2603C83.9891 33.5904 81.7645 31.5251 79.0357 30.0642C76.3069 28.6033 73.3408 27.8729 70.1373 27.8729H63.1966V8.37781C63.1966 8.12594 63.0483 8 62.7517 8ZM70.1373 52.6573L63.1966 52.5818V37.2426H70.1373C72.0653 37.2426 73.7412 38.0234 75.1649 39.585C76.5887 41.1718 77.3005 43.2246 77.3005 45.7434C77.3005 47.7584 76.6628 49.4081 75.3874 50.6927C74.1119 52.0024 72.3619 52.6573 70.1373 52.6573Z" fill="url(#paint1_linear_101_145)"/>
</g>
<defs>
<filter id="filter0_d_101_145" x="0" y="0" width="96.2455" height="164.623" filterUnits="userSpaceOnUse" color-interpolation-filters="sRGB">
<feFlood flood-opacity="0" result="BackgroundImageFix"/>
<feColorMatrix in="SourceAlpha" type="matrix" values="0 0 0 0 0 0 0 0 0 0 0 0 0 0 0 0 0 0 127 0" result="hardAlpha"/>
<feOffset/>
<feGaussianBlur stdDeviation="4"/>
<feComposite in2="hardAlpha" operator="out"/>
<feColorMatrix type="matrix" values="0 0 0 0 0.108333 0 0 0 0 0.108333 0 0 0 0 0.108333 0 0 0 1 0"/>
<feBlend mode="normal" in2="BackgroundImageFix" result="effect1_dropShadow_101_145"/>
<feBlend mode="normal" in="SourceGraphic" in2="effect1_dropShadow_101_145" result="shape"/>
</filter>
<linearGradient id="paint0_linear_101_145" x1="25.3257" y1="137.067" x2="25.5937" y2="108.587" gradientUnits="userSpaceOnUse">
<stop stop-color="#2E2E2E"/>
<stop offset="1" stop-color="#444343"/>
</linearGradient>
<linearGradient id="paint1_linear_101_145" x1="59.9771" y1="16.6045" x2="59.8907" y2="62.1631" gradientUnits="userSpaceOnUse">
<stop stop-color="#2E2E2E"/>
<stop offset="1" stop-color="#444343"/>
</linearGradient>
</defs>
</svg>
