<?xml version="1.0" encoding="utf-8"?><svg viewBox="0 0 502.66 502.66" xmlns="http://www.w3.org/2000/svg" xmlns:xlink="http://www.w3.org/1999/xlink"><style>:root>svg{display:none}:root>svg:target{display:block}</style><svg viewBox="0 0 35 29" id="fl" xmlns="http://www.w3.org/2000/svg"><path d="M3.122 0h8.01c.822 0 1.589.069 2.301.207.726.138 1.308.428 1.746.87.452.428.678 1.091.678 1.989 0 .897-.226 1.567-.678 2.009-.438.428-1.02.711-1.746.85-.712.137-1.479.206-2.3.206H6.244v5.386h2.588c.822 0 1.589.062 2.3.187.726.11 1.308.386 1.747.828.451.428.677 1.112.677 2.05 0 .94-.219 1.63-.657 2.072-.438.428-1.02.705-1.746.829a15.23 15.23 0 01-2.32.166h-2.59v6.587c0 .897-.055 1.705-.164 2.423-.11.718-.384 1.292-.822 1.72-.438.414-1.15.621-2.136.621-.986 0-1.698-.207-2.136-.621-.438-.415-.712-.98-.822-1.699A16.333 16.333 0 010 24.236V4.764c0-.897.055-1.705.164-2.423.11-.718.384-1.285.822-1.699C1.424.214 2.136 0 3.122 0zm16.925 25.934V4.764c0-.856.068-1.643.205-2.361.137-.732.425-1.312.863-1.74C21.567.22 22.252 0 23.169 0c.986 0 1.705.214 2.157.642.465.414.76.98.883 1.699.137.718.205 1.526.205 2.423V22.91h4.026c.822 0 1.575.069 2.26.207.698.138 1.252.421 1.663.85.425.428.637 1.084.637 1.967 0 .898-.212 1.568-.637 2.01-.41.428-.958.71-1.643.849-.685.138-1.445.207-2.28.207h-5.833c-1.465 0-2.595-.166-3.39-.497-.78-.332-1.17-1.188-1.17-2.569z"/></svg><svg viewBox="0 0 60 60" id="git" xmlns="http://www.w3.org/2000/svg"><path fill-rule="evenodd" clip-rule="evenodd" d="M29.99 0a29.857 29.857 0 00-19.434 7.218A30.323 30.323 0 00.388 25.412a30.473 30.473 0 003.94 20.504A30.053 30.053 0 0020.501 58.96c1.49.28 2.052-.656 2.052-1.453s-.03-3.106-.04-5.631c-8.346 1.828-10.109-3.572-10.109-3.572-1.361-3.507-3.328-4.429-3.328-4.429-2.723-1.873.203-1.838.203-1.838 3.016.215 4.6 3.12 4.6 3.12 2.673 4.625 7.02 3.287 8.729 2.506.268-1.96 1.048-3.292 1.907-4.048-6.666-.762-13.67-3.357-13.67-14.95a11.773 11.773 0 013.09-8.12c-.309-.762-1.337-3.838.292-8.016 0 0 2.519-.812 8.252 3.1a28.245 28.245 0 0115.022 0c5.728-3.912 8.242-3.1 8.242-3.1 1.634 4.168.606 7.244.298 8.015a11.749 11.749 0 013.095 8.131c0 11.618-7.02 14.178-13.696 14.925 1.073.941 2.032 2.78 2.032 5.606 0 4.048-.035 7.304-.035 8.301 0 .807.541 1.748 2.062 1.453a30.053 30.053 0 0016.174-13.048 30.473 30.473 0 003.939-20.506A30.323 30.323 0 0049.438 7.213 29.856 29.856 0 0030 0h-.01z"/></svg><svg viewBox="0 0 502.664 502.664" id="icon" xmlns="http://www.w3.org/2000/svg"><path d="M153.821 358.226L0 274.337v-46.463l153.821-83.414v54.574L46.636 250.523l107.185 53.431v54.272zm26.273 29.358L282.103 115.08h32.227L212.084 387.584h-31.99zm168.749-29.358v-54.272l107.164-52.999-107.164-52.59v-53.927l153.821 83.522v46.183l-153.821 84.083z"/></svg><svg viewBox="0 0 27 27" id="skype" xmlns="http://www.w3.org/2000/svg"><path fill-rule="evenodd" clip-rule="evenodd" d="M25.69 13.214c0 .906-.1 1.79-.289 2.64.481.954.753 2.029.753 3.167 0 3.94-3.239 7.133-7.234 7.133a7.283 7.283 0 01-3.42-.846c-.74.135-1.504.206-2.284.206-6.89 0-12.474-5.507-12.474-12.3 0-.847.087-1.674.252-2.473A7.023 7.023 0 010 7.133C0 3.193 3.239 0 7.234 0a7.27 7.27 0 013.849 1.095c.693-.118 1.406-.18 2.133-.18 6.89 0 12.474 5.506 12.474 12.3zm-8.61 7.774c1.104-.453 1.957-1.09 2.534-1.896a4.621 4.621 0 00.872-2.745c0-.847-.17-1.576-.507-2.166a4.22 4.22 0 00-1.406-1.465c-.585-.375-1.303-.698-2.134-.96a31.255 31.255 0 00-2.758-.712 46.98 46.98 0 01-1.726-.417 5.561 5.561 0 01-1.004-.384 2.24 2.24 0 01-.743-.557 1.075 1.075 0 01-.249-.716c0-.457.253-.843.773-1.179.54-.349 1.268-.526 2.162-.526.962 0 1.663.16 2.082.474.432.324.808.783 1.12 1.366.268.456.51.774.744.977.251.22.613.33 1.075.33.508 0 .94-.177 1.28-.527.34-.349.512-.748.512-1.187 0-.457-.13-.93-.39-1.404-.256-.47-.664-.921-1.213-1.344-.544-.42-1.238-.76-2.06-1.013-.817-.25-1.797-.377-2.91-.377-1.394 0-2.626.19-3.66.568-1.05.383-1.864.94-2.422 1.658a3.961 3.961 0 00-.847 2.489c0 .975.271 1.804.807 2.465.527.65 1.248 1.171 2.143 1.546l.01.004c.873.366 1.97.689 3.259.961a26.18 26.18 0 012.289.559c.543.167.991.41 1.33.724.325.3.483.68.483 1.166 0 .615-.303 1.117-.924 1.535-.636.428-1.481.645-2.512.645-.75 0-1.36-.107-1.812-.318-.45-.21-.802-.478-1.046-.797a6.185 6.185 0 01-.717-1.253c-.198-.458-.444-.813-.731-1.053-.3-.25-.67-.377-1.1-.377-.521 0-.96.16-1.301.477-.345.32-.52.71-.52 1.161 0 .721.268 1.47.798 2.223a5.829 5.829 0 002.054 1.797c1.172.613 2.675.924 4.466.924 1.493 0 2.804-.228 3.898-.676z"/></svg><svg viewBox="0 0 30 28" id="telegram" xmlns="http://www.w3.org/2000/svg"><path fill-rule="evenodd" clip-rule="evenodd" d="M7.295 15.615L.52 12.948c-.689-.272-.695-1.296-.008-1.575L28.317.06c.59-.24 1.197.304 1.069.957l-4.99 25.314c-.117.598-.782.869-1.25.51l-6.812-5.216a1.08 1.08 0 00-1.374.04l-3.776 3.247c-.439.378-1.1.168-1.267-.402l-2.622-8.895zm15.44-10.021l-13.24 8.6c-.508.331-.747.977-.583 1.583l1.432 5.305a.34.34 0 00.668-.051l.372-2.91c.07-.547.318-1.052.702-1.429L23.014 5.979c.204-.2-.04-.54-.279-.385z"/><path d="M9.494 14.195l13.241-8.601c.238-.154.483.185.279.385L12.086 16.692a2.435 2.435 0 00-.702 1.43l-.372 2.909a.34.34 0 01-.669.051l-1.431-5.305c-.164-.606.075-1.252.582-1.582z"/></svg><svg viewBox="0 0 38 38" id="whatsup" xmlns="http://www.w3.org/2000/svg"><path fill-rule="evenodd" clip-rule="evenodd" d="M27.127 22.396c-.463-.232-2.739-1.351-3.163-1.506-.424-.154-.733-.231-1.041.232-.31.463-1.196 1.505-1.466 1.814-.27.309-.54.348-1.003.116-.463-.232-1.954-.72-3.723-2.297-1.376-1.227-2.305-2.742-2.575-3.205-.27-.464-.028-.714.204-.945.208-.207.462-.54.694-.81.231-.27.308-.464.463-.772.154-.31.077-.58-.039-.811-.116-.232-1.041-2.51-1.427-3.436-.376-.902-.758-.78-1.042-.794a18.53 18.53 0 00-.887-.017c-.308 0-.81.116-1.234.58-.424.463-1.62 1.582-1.62 3.86 0 2.277 1.659 4.478 1.89 4.787.231.309 3.264 4.982 7.907 6.987a26.65 26.65 0 002.64.975c1.108.352 2.117.302 2.915.183.889-.133 2.738-1.12 3.124-2.2.386-1.081.386-2.008.27-2.2-.116-.194-.424-.31-.887-.541zM18.68 33.924h-.006a15.377 15.377 0 01-7.837-2.146l-.562-.333-5.828 1.528 1.556-5.68-.367-.582a15.354 15.354 0 01-2.354-8.192c.004-8.487 6.911-15.392 15.404-15.392a15.296 15.296 0 0110.886 4.514 15.298 15.298 0 014.506 10.89c-.004 8.488-6.911 15.393-15.398 15.393zM31.786 5.432A18.408 18.408 0 0018.68 0C8.471 0 .16 8.308.155 18.52a18.482 18.482 0 002.473 9.258L0 37.374l9.82-2.575a18.518 18.518 0 008.854 2.254h.007c10.21 0 18.521-8.308 18.525-18.52a18.405 18.405 0 00-5.42-13.101z"/></svg></svg>